<?xml version="1.0" encoding="UTF-8" standalone="no"?>
<svg
   version="1.0"
   width="300.000000pt"
   height="300.000000pt"
   viewBox="0 0 300.000000 300.000000"
   preserveAspectRatio="xMidYMid meet"
   id="svg3"
   sodipodi:docname="EhDpXO01(1).svg"
   inkscape:version="1.3.1 (9b9bdc1480, 2023-11-25, custom)"
   xmlns:inkscape="http://www.inkscape.org/namespaces/inkscape"
   xmlns:sodipodi="http://sodipodi.sourceforge.net/DTD/sodipodi-0.dtd"
   xmlns:xlink="http://www.w3.org/1999/xlink"
   xmlns="http://www.w3.org/2000/svg"
   xmlns:svg="http://www.w3.org/2000/svg">
  <defs
     id="defs3">
    <linearGradient
       id="linearGradient3"
       inkscape:collect="always">
      <stop
         style="stop-color:#0000ff;stop-opacity:1;"
         offset="0"
         id="stop3" />
      <stop
         style="stop-color:#000080;stop-opacity:1"
         offset="1"
         id="stop4" />
    </linearGradient>
    <linearGradient
       inkscape:collect="always"
       xlink:href="#linearGradient3"
       id="linearGradient4"
       x1="42.968185"
       y1="1196.2026"
       x2="3115.0835"
       y2="1130.8634"
       gradientUnits="userSpaceOnUse" />
    <linearGradient
       inkscape:collect="always"
       xlink:href="#linearGradient3"
       id="linearGradient5"
       x1="42.968185"
       y1="1196.2026"
       x2="3115.0835"
       y2="1130.8634"
       gradientUnits="userSpaceOnUse" />
    <linearGradient
       inkscape:collect="always"
       xlink:href="#linearGradient3"
       id="linearGradient6"
       x1="-3654.2715"
       y1="1827.7544"
       x2="4058.8669"
       y2="1663.7078"
       gradientUnits="userSpaceOnUse" />
  </defs>
  <sodipodi:namedview
     id="namedview3"
     pagecolor="#ffffff"
     bordercolor="#000000"
     borderopacity="0.25"
     inkscape:showpageshadow="2"
     inkscape:pageopacity="0.0"
     inkscape:pagecheckerboard="0"
     inkscape:deskcolor="#d1d1d1"
     inkscape:document-units="pt"
     showgrid="false"
     inkscape:zoom="0.67705474"
     inkscape:cx="-225.97877"
     inkscape:cy="273.24231"
     inkscape:window-width="1920"
     inkscape:window-height="1011"
     inkscape:window-x="0"
     inkscape:window-y="0"
     inkscape:window-maximized="1"
     inkscape:current-layer="g3" />
  <metadata
     id="metadata1">
Created by potrace 1.10, written by Peter Selinger 2001-2011
</metadata>
  <g
     transform="translate(0.000000,300.000000) scale(0.100000,-0.100000)"
     fill="#000000"
     stroke="none"
     id="g3">
    <path
       d="M353 2985 c-124 -34 -244 -128 -297 -233 -58 -114 -56 -71 -56 -1252 0 -1181 -2 -1138 56 -1252 34 -67 125 -158 192 -192 114 -58 71 -56 1252 -56 1181 0 1138 -2 1252 56 67 34 158 126 192 192 57 113 71 247 30 293 -27 31 -79 51 -112 43 -65 -16 -83 -43 -102 -149 -19 -107 -85 -176 -192 -195 -36 -7 -415 -10 -1104 -8 l-1049 3 -47 23 c-52 26 -92 68 -117 122 -14 31 -16 147 -16 1120 l0 1085 23 47 c26 52 68 92 122 117 31 14 147 16 1120 16 l1085 0 47 -23 c52 -26 92 -68 117 -122 14 -31 17 -129 21 -820 4 -590 8 -790 17 -806 7 -12 29 -29 49 -39 45 -21 97 -10 135 31 l24 26 3 781 c1 518 -1 799 -8 833 -36 172 -172 314 -347 359 -83 22 -2210 21 -2290 0z"
       id="path1"
       style="fill:url(#linearGradient4);fill-opacity:1" />
    <path
       d="M1249 2515 c-111 -36 -205 -136 -234 -250 -11 -45 -15 -116 -15 -291 l0 -232 -114 -4 c-105 -3 -117 -5 -140 -27 -41 -38 -52 -90 -31 -135 26 -55 57 -66 179 -66 l105 0 3 -479 c3 -469 3 -480 24 -508 45 -61 143 -61 188 0 21 28 21 39 24 508 l3 479 107 0 c118 0 140 8 167 60 19 37 19 64 0 104 -25 53 -59 66 -174 66 l-101 0 0 235 c0 265 3 280 66 310 74 35 151 -14 165 -106 14 -86 76 -132 148 -111 46 14 71 40 80 84 10 47 -5 132 -33 187 -30 58 -112 136 -174 163 -61 27 -179 34 -243 13z"
       id="path2"
       style="fill:url(#linearGradient5);fill-opacity:1" />
    <g
       transform="matrix(0.39829641,0,0,0.39829641,1498.4514,468.21457)"
       fill="#000000"
       stroke="none"
       id="g2"
       style="fill:url(#linearGradient6);fill-opacity:1">
      <path
         d="m 2085,2949 c -30,-23 -106,-92 -829,-752 -204,-185 -376,-335 -383,-333 -7,3 -132,95 -278,206 -334,252 -302,247 -482,82 C 12,2060 -6,2027 11,1965 c 8,-27 58,-78 244,-247 l 234,-213 -34,-34 C 436,1452 334,1357 228,1260 122,1164 26,1068 16,1048 -17,988 2,948 116,843 c 52,-48 105,-93 117,-100 28,-16 86,-16 113,0 12,7 136,99 277,206 l 256,193 24,-19 c 18,-14 366,-331 591,-538 6,-5 58,-53 116,-105 58,-53 189,-173 291,-267 103,-94 196.0456,-173.854602 209,-178 37.0467,-11.854953 87,4 114,36 0,0 21.3888,18.326196 26,31 40.6876,111.82808 0,357 0,357 0,0 -19.6616,229.3689 -72.6091,335.94075 C 2107.4162,935.78458 1874,1101 1874,1101 c -207,156 -409,309 -450,340 l -74,57 43,34 c 23,19 226,173 450,343 0,0 300.3654,205.4205 364.6423,335.953 64.2769,130.5325 64.8188,331.2906 64.8188,331.2906 0,0 9.1115,254.3833 -37.6563,365.9842 C 2230.0677,2919.5319 2219,2936 2219,2936 c -37,37 -95,43 -134,13 z"
         id="path1-3"
         sodipodi:nodetypes="ccccccccscccccccccccscscsccccczcssc"
         style="fill:url(#linearGradient6);fill-opacity:1.0" />
    </g>
  </g>
</svg>
